<?xml version="1.0" encoding="utf-8" ?>	<!-- Generator: Assembly 2.4 - http://assemblyapp.co -->	<svg version="1.1" xmlns="http://www.w3.org/2000/svg" xmlns:xlink="http://www.w3.org/1999/xlink" width="4096.00" height="4096.00" viewBox="0 0 4096.0 4096.0">		<g id="document" transform="scale(1.0 1.0) translate(2048.0 2048.0)">			<path d="M-1136.99,591.569 L-1213.07,591.569 L-1213.07,888.575 C-1213.07,909.417 -1220.36,919.839 -1234.95,919.839 C-1249.54,919.839 -1256.84,909.417 -1256.84,888.575 L-1256.84,199.73 C-1256.84,179.93 -1249.54,169.509 -1234.95,169.509 C-1220.36,169.509 -1213.07,179.93 -1213.07,199.73 L-1213.07,466.514 L-1136.99,466.514 L-1136.99,205.983 C-1136.99,140.329 -1169.3,106.981 -1234.95,106.981 C-1300.6,106.981 -1333.95,140.329 -1333.95,205.983 L-1333.95,885.449 C-1333.95,951.102 -1300.6,984.45 -1234.95,984.45 C-1169.3,984.45 -1136.99,951.102 -1136.99,885.449 L-1136.99,591.569 Z M-826.437,119.487 L-902.513,119.487 L-902.513,519.663 L-946.282,519.663 L-946.282,119.487 L-1022.36,119.487 L-1022.36,972.987 L-946.282,972.987 L-946.282,591.569 L-902.513,591.569 L-902.513,972.987 L-826.437,972.987 L-826.437,119.487 Z M-509.631,610.328 L-586.749,610.328 L-586.749,905.249 C-586.749,919.839 -594.044,926.091 -609.675,926.091 C-626.349,926.091 -634.686,919.839 -634.686,905.249 L-634.686,573.853 L-509.631,573.853 L-509.631,183.056 C-509.631,137.203 -549.232,106.981 -610.718,106.981 C-678.456,106.981 -711.804,141.371 -711.804,208.067 L-711.804,883.364 C-711.804,951.102 -677.414,984.45 -609.675,984.45 C-549.232,984.45 -509.631,950.06 -509.631,905.249 L-509.631,610.328 Z M-634.686,520.705 L-634.686,184.098 C-634.686,169.509 -626.349,162.214 -609.675,162.214 C-594.044,162.214 -586.749,169.509 -586.749,184.098 L-586.749,520.705 L-634.686,520.705 Z M-201.162,817.71 C-201.162,805.205 -204.289,793.742 -207.415,780.194 C-222.005,722.877 -230.342,680.15 -237.637,649.928 L-290.785,423.787 C-312.67,329.996 -322.049,271.637 -322.049,249.752 L-322.049,194.52 C-322.049,176.804 -312.67,168.467 -300.164,168.467 C-284.532,168.467 -277.238,178.888 -277.238,199.73 L-277.238,373.765 L-201.162,373.765 L-201.162,205.983 C-201.162,140.329 -234.51,106.981 -300.164,106.981 C-365.818,106.981 -399.166,140.329 -399.166,205.983 L-399.166,274.763 C-399.166,284.142 -390.829,323.743 -374.155,395.65 L-300.164,690.571 L-279.322,815.626 C-278.28,822.921 -277.238,847.932 -277.238,888.575 C-277.238,909.417 -284.532,919.839 -300.164,919.839 C-314.754,919.839 -322.049,909.417 -322.049,888.575 L-322.049,706.203 L-399.166,706.203 L-399.166,885.449 C-399.166,951.102 -365.818,984.45 -300.164,984.45 C-234.51,984.45 -201.162,951.102 -201.162,885.449 L-201.162,817.71 Z M105.222,817.71 C105.222,805.205 102.096,793.742 98.9696,780.194 C84.3798,722.877 76.0428,680.15 68.748,649.928 L15.5996,423.787 C-6.28504,329.996 -15.6642,271.637 -15.6642,249.752 L-15.6642,194.52 C-15.6642,176.804 -6.28504,168.467 6.22046,168.467 C21.8523,168.467 29.1472,178.888 29.1472,199.73 L29.1472,373.765 L105.222,373.765 L105.222,205.983 C105.222,140.329 71.8743,106.981 6.22046,106.981 C-59.4334,106.981 -92.7814,140.329 -92.7814,205.983 L-92.7814,274.763 C-92.7814,284.142 -84.4444,323.743 -67.7704,395.65 L6.22046,690.571 L27.063,815.626 C28.1051,822.921 29.1472,847.932 29.1472,888.575 C29.1472,909.417 21.8523,919.839 6.22046,919.839 C-8.36929,919.839 -15.6642,909.417 -15.6642,888.575 L-15.6642,706.203 L-92.7814,706.203 L-92.7814,885.449 C-92.7814,951.102 -59.4334,984.45 6.22046,984.45 C71.8743,984.45 105.222,951.102 105.222,885.449 L105.222,817.71 Z M442.871,119.487 L366.796,119.487 L366.796,972.987 L442.871,972.987 L442.871,119.487 Z M754.466,817.71 C754.466,805.205 751.34,793.742 748.214,780.194 C733.624,722.877 725.287,680.15 717.992,649.928 L664.844,423.787 C642.959,329.996 633.58,271.637 633.58,249.752 L633.58,194.52 C633.58,176.804 642.959,168.467 655.464,168.467 C671.096,168.467 678.391,178.888 678.391,199.73 L678.391,373.765 L754.466,373.765 L754.466,205.983 C754.466,140.329 721.118,106.981 655.464,106.981 C589.811,106.981 556.463,140.329 556.463,205.983 L556.463,274.763 C556.463,284.142 564.8,323.743 581.474,395.65 L655.464,690.571 L676.307,815.626 C677.349,822.921 678.391,847.932 678.391,888.575 C678.391,909.417 671.096,919.839 655.464,919.839 C640.875,919.839 633.58,909.417 633.58,888.575 L633.58,706.203 L556.463,706.203 L556.463,885.449 C556.463,951.102 589.811,984.45 655.464,984.45 C721.118,984.45 754.466,951.102 754.466,885.449 L754.466,817.71 Z M-1196.39,1069.34 L-1233.91,1809.25 L-1272.47,1069.34 L-1352.71,1069.34 L-1290.18,1922.84 L-1179.72,1922.84 L-1119.27,1069.34 L-1196.39,1069.34 Z M-824.353,1560.18 L-901.47,1560.18 L-901.47,1855.1 C-901.47,1869.69 -908.765,1875.95 -924.397,1875.95 C-941.071,1875.95 -949.408,1869.69 -949.408,1855.1 L-949.408,1523.71 L-824.353,1523.71 L-824.353,1132.91 C-824.353,1087.06 -863.954,1056.83 -925.439,1056.83 C-993.177,1056.83 -1026.53,1091.22 -1026.53,1157.92 L-1026.53,1833.22 C-1026.53,1900.96 -992.135,1934.3 -924.397,1934.3 C-863.954,1934.3 -824.353,1899.91 -824.353,1855.1 L-824.353,1560.18 Z M-949.408,1470.56 L-949.408,1133.95 C-949.408,1119.36 -941.071,1112.07 -924.397,1112.07 C-908.765,1112.07 -901.47,1119.36 -901.47,1133.95 L-901.47,1470.56 L-949.408,1470.56 Z M-498.168,1922.84 C-506.505,1905.12 -510.674,1873.86 -510.674,1829.05 L-510.674,1550.8 C-510.674,1505.99 -535.685,1482.02 -586.749,1477.85 C-535.685,1467.43 -510.674,1438.25 -510.674,1389.27 L-510.674,1161.05 C-510.674,1098.52 -547.148,1067.26 -619.055,1067.26 L-709.719,1067.26 L-709.719,1922.84 L-633.644,1922.84 L-633.644,1509.12 C-603.423,1509.12 -588.833,1519.54 -588.833,1541.42 L-588.833,1826.97 C-588.833,1875.95 -585.707,1907.21 -578.412,1922.84 L-498.168,1922.84 Z M-588.833,1411.16 C-588.833,1434.08 -598.212,1445.55 -616.97,1445.55 L-633.644,1445.55 L-633.644,1126.66 L-616.97,1126.66 C-598.212,1126.66 -588.833,1138.12 -588.833,1160.01 L-588.833,1411.16 Z M-195.952,1069.34 L-277.238,1069.34 L-277.238,1472.64 C-277.238,1492.44 -284.532,1502.86 -300.164,1502.86 C-311.628,1502.86 -316.838,1492.44 -316.838,1472.64 L-316.838,1069.34 L-399.166,1069.34 L-399.166,1498.7 C-399.166,1539.34 -369.987,1571.64 -328.302,1571.64 C-309.543,1571.64 -292.869,1564.35 -277.238,1548.72 L-277.238,1838.43 C-277.238,1859.27 -284.532,1869.69 -300.164,1869.69 C-311.628,1869.69 -316.838,1859.27 -316.838,1838.43 L-316.838,1609.16 L-399.166,1609.16 L-399.166,1835.3 C-399.166,1900.96 -365.818,1934.3 -300.164,1934.3 C-230.342,1934.3 -195.952,1900.96 -195.952,1835.3 L-195.952,1069.34 Z M264.667,1069.34 L188.592,1069.34 L188.592,1469.52 L144.823,1469.52 L144.823,1069.34 L68.748,1069.34 L68.748,1922.84 L144.823,1922.84 L144.823,1541.42 L188.592,1541.42 L188.592,1922.84 L264.667,1922.84 L264.667,1069.34 Z M573.137,1922.84 C572.094,1915.55 572.094,1907.21 572.094,1897.83 L572.094,1137.08 C572.094,1083.93 538.746,1056.83 473.092,1056.83 C410.565,1056.83 379.301,1083.93 379.301,1137.08 L379.301,1406.99 L448.081,1406.99 L448.081,1129.78 C448.081,1115.19 456.418,1107.9 473.092,1107.9 C489.766,1107.9 498.103,1115.19 498.103,1129.78 L498.103,1393.44 C498.103,1421.58 478.303,1449.72 438.702,1474.73 C399.102,1499.74 379.301,1522.66 379.301,1544.55 L379.301,1857.19 C379.301,1895.75 407.439,1929.09 445.997,1929.09 C468.924,1929.09 486.64,1916.59 499.146,1890.53 C500.188,1905.12 501.23,1915.55 501.23,1922.84 L573.137,1922.84 Z M498.103,1846.77 C498.103,1861.36 489.766,1871.78 473.092,1871.78 C456.418,1871.78 448.081,1864.48 448.081,1848.85 L448.081,1542.47 C448.081,1520.58 452.25,1514.33 498.103,1486.19 L498.103,1846.77 Z M900.364,1922.84 C892.027,1905.12 887.858,1873.86 887.858,1829.05 L887.858,1550.8 C887.858,1505.99 862.847,1482.02 811.783,1477.85 C862.847,1467.43 887.858,1438.25 887.858,1389.27 L887.858,1161.05 C887.858,1098.52 851.384,1067.26 779.477,1067.26 L688.812,1067.26 L688.812,1922.84 L764.888,1922.84 L764.888,1509.12 C795.109,1509.12 809.699,1519.54 809.699,1541.42 L809.699,1826.97 C809.699,1875.95 812.825,1907.21 820.12,1922.84 L900.364,1922.84 Z M809.699,1411.16 C809.699,1434.08 800.32,1445.55 781.562,1445.55 L764.888,1445.55 L764.888,1126.66 L781.562,1126.66 C800.32,1126.66 809.699,1138.12 809.699,1160.01 L809.699,1411.16 Z M1199.45,1163.13 C1199.45,1100.6 1162.98,1069.34 1091.07,1069.34 L1000.41,1069.34 L1000.41,1922.84 L1091.07,1922.84 C1162.98,1922.84 1199.45,1891.58 1199.45,1829.05 L1199.45,1163.13 Z M1121.29,1825.92 C1121.29,1847.81 1111.92,1859.27 1093.16,1859.27 L1076.48,1859.27 L1076.48,1127.7 L1093.16,1127.7 C1111.92,1127.7 1121.29,1139.16 1121.29,1162.09 L1121.29,1825.92 Z " fill="#b18e68" fill-opacity="1.00" />			<path d="M-1333.95,-914.879 L-977.273,-914.879 L-977.273,-1176.27 L-1333.95,-1176.27 L-1333.95,-914.879 Z M806.126,-914.879 L1162.81,-914.879 L1162.81,-1176.27 L806.126,-1176.27 L806.126,-914.879 Z M806.126,-130.697 L1162.81,-130.697 L1162.81,-392.091 L806.126,-392.091 L806.126,-130.697 Z M627.786,1.13687e-13 L806.126,1.13687e-13 L806.126,-130.697 L627.786,-130.697 L627.786,1.13687e-13 Z M1162.81,1.13687e-13 L1341.15,1.13687e-13 L1341.15,-130.697 L1162.81,-130.697 L1162.81,1.13687e-13 Z M92.7663,1.13687e-13 L271.107,1.13687e-13 L271.107,-130.697 L92.7663,-130.697 L92.7663,1.13687e-13 Z M-442.253,1.13687e-13 L-263.913,1.13687e-13 L-263.913,-130.697 L-442.253,-130.697 L-442.253,1.13687e-13 Z M-977.273,1.13687e-13 L-798.932,1.13687e-13 L-798.932,-130.697 L-977.273,-130.697 L-977.273,1.13687e-13 Z M627.786,-392.091 L806.126,-392.091 L806.126,-522.788 L627.786,-522.788 L627.786,-392.091 Z M1162.81,-392.091 L1341.15,-392.091 L1341.15,-522.788 L1162.81,-522.788 L1162.81,-392.091 Z M271.107,-130.697 L627.786,-130.697 L627.786,-392.091 L271.107,-392.091 L271.107,-130.697 Z M92.7663,-392.091 L271.107,-392.091 L271.107,-522.788 L92.7663,-522.788 L92.7663,-392.091 Z M-263.913,-130.697 L92.7663,-130.697 L92.7663,-392.091 L-263.913,-392.091 L-263.913,-130.697 Z M-442.253,-392.091 L-263.913,-392.091 L-263.913,-522.788 L-442.253,-522.788 L-442.253,-392.091 Z M-1333.95,-130.697 L-977.273,-130.697 L-977.273,-392.091 L-1333.95,-392.091 L-1333.95,-130.697 Z M-798.932,-130.697 L-442.253,-130.697 L-442.253,-392.091 L-798.932,-392.091 L-798.932,-130.697 Z M-977.273,-392.091 L-798.932,-392.091 L-798.932,-522.788 L-977.273,-522.788 L-977.273,-392.091 Z M806.126,-522.788 L1162.81,-522.788 L1162.81,-784.182 L806.126,-784.182 L806.126,-522.788 Z M627.786,-1176.27 L806.126,-1176.27 L806.126,-1306.97 L627.786,-1306.97 L627.786,-1176.27 Z M1162.81,-1176.27 L1341.15,-1176.27 L1341.15,-1306.97 L1162.81,-1306.97 L1162.81,-1176.27 Z M92.7663,-1176.27 L271.107,-1176.27 L271.107,-1306.97 L92.7663,-1306.97 L92.7663,-1176.27 Z M-442.253,-1176.27 L-263.913,-1176.27 L-263.913,-1306.97 L-442.253,-1306.97 L-442.253,-1176.27 Z M-977.273,-1176.27 L-798.932,-1176.27 L-798.932,-1306.97 L-977.273,-1306.97 L-977.273,-1176.27 Z M627.786,-784.182 L806.126,-784.182 L806.126,-914.879 L627.786,-914.879 L627.786,-784.182 Z M1162.81,-784.182 L1341.15,-784.182 L1341.15,-914.879 L1162.81,-914.879 L1162.81,-784.182 Z M271.107,-914.879 L627.786,-914.879 L627.786,-1176.27 L271.107,-1176.27 L271.107,-914.879 Z M271.107,-522.788 L627.786,-522.788 L627.786,-784.182 L271.107,-784.182 L271.107,-522.788 Z M92.7663,-784.182 L271.107,-784.182 L271.107,-914.879 L92.7663,-914.879 L92.7663,-784.182 Z M-263.913,-914.879 L92.7663,-914.879 L92.7663,-1176.27 L-263.913,-1176.27 L-263.913,-914.879 Z M-263.913,-522.788 L92.7663,-522.788 L92.7663,-784.182 L-263.913,-784.182 L-263.913,-522.788 Z M-442.253,-784.182 L-263.913,-784.182 L-263.913,-914.879 L-442.253,-914.879 L-442.253,-784.182 Z M-798.932,-914.879 L-442.253,-914.879 L-442.253,-1176.27 L-798.932,-1176.27 L-798.932,-914.879 Z M-1333.95,-522.788 L-977.273,-522.788 L-977.273,-784.182 L-1333.95,-784.182 L-1333.95,-522.788 Z M-798.932,-522.788 L-442.253,-522.788 L-442.253,-784.182 L-798.932,-784.182 L-798.932,-522.788 Z M-977.273,-784.182 L-798.932,-784.182 L-798.932,-914.879 L-977.273,-914.879 L-977.273,-784.182 Z M-1333.95,-1699.06 L-977.273,-1699.06 L-977.273,-1960.45 L-1333.95,-1960.45 L-1333.95,-1699.06 Z M806.126,-1699.06 L1162.81,-1699.06 L1162.81,-1960.45 L806.126,-1960.45 L806.126,-1699.06 Z M806.126,-1306.97 L1162.81,-1306.97 L1162.81,-1568.36 L806.126,-1568.36 L806.126,-1306.97 Z M627.786,-1568.36 L806.126,-1568.36 L806.126,-1699.06 L627.786,-1699.06 L627.786,-1568.36 Z M1162.81,-1568.36 L1341.15,-1568.36 L1341.15,-1699.06 L1162.81,-1699.06 L1162.81,-1568.36 Z M271.107,-1699.06 L627.786,-1699.06 L627.786,-1960.45 L271.107,-1960.45 L271.107,-1699.06 Z M271.107,-1306.97 L627.786,-1306.97 L627.786,-1568.36 L271.107,-1568.36 L271.107,-1306.97 Z M92.7663,-1568.36 L271.107,-1568.36 L271.107,-1699.06 L92.7663,-1699.06 L92.7663,-1568.36 Z M-263.913,-1699.06 L92.7663,-1699.06 L92.7663,-1960.45 L-263.913,-1960.45 L-263.913,-1699.06 Z M-263.913,-1306.97 L92.7663,-1306.97 L92.7663,-1568.36 L-263.913,-1568.36 L-263.913,-1306.97 Z M-442.253,-1568.36 L-263.913,-1568.36 L-263.913,-1699.06 L-442.253,-1699.06 L-442.253,-1568.36 Z M-798.932,-1699.06 L-442.253,-1699.06 L-442.253,-1960.45 L-798.932,-1960.45 L-798.932,-1699.06 Z M-1333.95,-1306.97 L-977.273,-1306.97 L-977.273,-1568.36 L-1333.95,-1568.36 L-1333.95,-1306.97 Z M-798.932,-1306.97 L-442.253,-1306.97 L-442.253,-1568.36 L-798.932,-1568.36 L-798.932,-1306.97 Z M-977.273,-1568.36 L-798.932,-1568.36 L-798.932,-1699.06 L-977.273,-1699.06 L-977.273,-1568.36 Z " fill="#865f3e" fill-opacity="1.00" />		</g>	</svg>